<svg xmlns="http://www.w3.org/2000/svg" viewBox="0 0 64 64" width="64" height="64">
  <!-- Background circle with outline -->
  <circle cx="32" cy="32" r="28" fill="#2955c3" stroke="#1e3d8f" stroke-width="2"/>

  <!-- PageCrawl logo paths (centered with more padding) -->
  <g transform="translate(32, 32) scale(0.015, -0.015) translate(-1400, -1400)" fill="white" stroke="none">
    <path d="M1290 2574 c-553 -67 -1049 -128 -1102 -134 -54 -7 -99 -17 -101 -24
    -3 -6 8 -115 24 -241 16 -127 29 -236 29 -242 0 -14 28 -17 47 -5 9 5 5 59
    -14 220 -15 117 -23 215 -19 219 6 6 2049 262 2096 263 13 0 20 -35 39 -192
    31 -257 29 -248 57 -248 20 0 24 5 24 30 0 69 -53 456 -63 466 -9 8 -278 -21
    -1017 -112z"/>
    <path d="M2568 943 c-12 -3 -15 -12 -12 -36 25 -163 49 -409 40 -412 -29 -10
    -2087 -257 -2099 -252 -9 3 -20 66 -36 203 -12 110 -25 207 -27 217 -3 10 -15
    17 -30 17 -18 0 -24 -5 -24 -22 -1 -59 54 -464 64 -475 9 -9 257 18 1105 122
    601 74 1097 135 1101 135 4 0 10 7 14 15 6 16 -49 469 -59 485 -6 10 -9 11
    -37 3z"/>
  </g>
</svg>
